# xmcd
#
# Track frame offsets: 
#        150
#        18246
#        40350
#        58080
#        81118
#        103629
#
# Disc length: 1514 seconds
#
# Revision: 0
# Processed by: cddbd v1.5.2PL0 Copyright (c) Steve Scherf et al.
# Submitted via: ExactAudioCopy v0.95b4
#
DISCID=4405e806
DTITLE=Krystle Warren and the Faculty - Diary
DYEAR=2007
DGENRE=Alternative
TTITLE0=I've Seen Days
TTITLE1=The New Astrologer
TTITLE2=Infinity
TTITLE3=A Song For Holly
TTITLE4=Central Park
TTITLE5=On That First Day of Autumn
EXTD=
EXTT0=
EXTT1=
EXTT2=
EXTT3=
EXTT4=
EXTT5=
PLAYORDER=
